<?xml version="1.0" encoding="UTF-8" standalone="no"?>
<!-- Created with Inkscape (http://www.inkscape.org/) -->

<svg
   width="297mm"
   height="210mm"
   viewBox="0 0 297 210"
   version="1.1"
   id="svg155"
   inkscape:version="1.1 (c68e22c387, 2021-05-23)"
   sodipodi:docname="Figure3.svg"
   inkscape:export-filename="F:\Workspace\periotrisjs-presentation\Figure3.png"
   inkscape:export-xdpi="600"
   inkscape:export-ydpi="600"
   xmlns:inkscape="http://www.inkscape.org/namespaces/inkscape"
   xmlns:sodipodi="http://sodipodi.sourceforge.net/DTD/sodipodi-0.dtd"
   xmlns="http://www.w3.org/2000/svg"
   xmlns:svg="http://www.w3.org/2000/svg"
   xmlns:rdf="http://www.w3.org/1999/02/22-rdf-syntax-ns#"
   xmlns:cc="http://creativecommons.org/ns#"
   xmlns:dc="http://purl.org/dc/elements/1.1/">
  <title
     id="title161">Figure 3</title>
  <sodipodi:namedview
     id="namedview157"
     pagecolor="#505050"
     bordercolor="#ffffff"
     borderopacity="1"
     inkscape:pageshadow="0"
     inkscape:pageopacity="0"
     inkscape:pagecheckerboard="1"
     inkscape:document-units="mm"
     showgrid="false"
     inkscape:zoom="0.66646401"
     inkscape:cx="333.85148"
     inkscape:cy="385.61722"
     inkscape:window-width="1366"
     inkscape:window-height="715"
     inkscape:window-x="-8"
     inkscape:window-y="-8"
     inkscape:window-maximized="1"
     inkscape:current-layer="layer1" />
  <defs
     id="defs152" />
  <g
     inkscape:label="Layer 1"
     inkscape:groupmode="layer"
     id="layer1">
    <path
       fill="#00ffff"
       d="M 18.26011,91.951784 H 71.176775 V 105.18098 H 18.26011 Z"
       id="path205"
       style="stroke-width:0.132291" />
    <path
       fill="#0000ff"
       d="m 149.42559,127.4557 h 13.22917 v 39.68761 h -26.45833 v -13.22917 h 13.22916 z"
       id="path245"
       style="stroke-width:0.132291" />
    <path
       fill="#ff8000"
       d="m 136.19643,65.493451 h 13.22917 v 26.45834 h 13.22916 v 13.229189 h -26.45833 z"
       id="path265"
       style="stroke-width:0.132291" />
    <path
       fill="#ffff00"
       d="M 90.457411,78.722621 H 116.9158 V 105.18098 H 90.457411 Z"
       id="path285"
       style="stroke-width:0.132291" />
    <path
       fill="#00ff00"
       d="m 195.16457,140.68496 h 26.45833 v 13.22919 h -13.22916 v 13.22916 H 181.9354 v -13.22916 h 13.22917 z"
       id="path305"
       style="stroke-width:0.132291" />
    <path
       fill="#ff00ff"
       d="m 280.59104,105.18098 h -39.6875 V 91.951785 h 13.22916 v -13.22917 h 13.22917 v 13.22917 h 13.22917 z"
       id="path325"
       style="stroke-width:0.132291" />
    <path
       fill="#ff0000"
       d="m 181.9354,78.722616 h 26.45833 V 91.951781 H 221.6229 V 105.18098 H 195.16457 V 91.951781 H 181.9354 Z"
       id="path345"
       style="stroke-width:0.132291" />
    <g
       aria-label="1"
       id="text1106"
       style="font-size:10.5833px;line-height:1.25;stroke-width:0.264583">
      <path
         d="m 45.81378,116.98454 h -5.136621 v -1.34358 h 1.622635 v -4.06692 h -1.622635 v -1.25574 q 0.372069,0 0.713133,-0.0413 0.341063,-0.0465 0.568439,-0.15503 0.268716,-0.12919 0.403074,-0.33589 0.134359,-0.20671 0.155029,-0.51676 h 1.710485 v 6.37168 h 1.586461 z"
         style="font-weight:bold;font-family:Verdana;-inkscape-font-specification:'Verdana, Bold'"
         id="path24426" />
    </g>
    <g
       aria-label="2"
       id="text7586"
       style="font-size:10.5833px;line-height:1.25;stroke-width:0.264583">
      <path
         d="m 106.70708,117.11373 h -6.04096 v -1.27123 q 0.69247,-0.50126 1.38493,-1.06454 0.69763,-0.56327 1.11621,-0.97151 0.62528,-0.60461 0.88883,-1.0542 0.26355,-0.44958 0.26355,-0.88883 0,-0.5271 -0.34107,-0.81131 -0.33589,-0.28939 -0.97151,-0.28939 -0.47542,0 -1.00252,0.19637 -0.52193,0.19637 -0.97151,0.50126 h -0.16537 v -1.71049 q 0.3669,-0.16019 1.08004,-0.32039 0.7183,-0.1602 1.4366,-0.1602 1.44693,0 2.20657,0.60978 0.75964,0.60462 0.75964,1.71566 0,0.72863 -0.3669,1.38492 -0.36173,0.65629 -1.11104,1.35392 -0.47025,0.43408 -0.94567,0.80098 -0.47542,0.36173 -0.67696,0.50643 h 3.45714 z"
         style="font-weight:bold;font-family:Verdana;-inkscape-font-specification:'Verdana, Bold'"
         id="path24429" />
    </g>
    <g
       aria-label="3"
       id="text12432"
       style="font-size:10.5833px;line-height:1.25;stroke-width:0.264583">
      <path
         d="m 151.90863,113.51706 q 0.25321,0.21704 0.40308,0.50643 0.14986,0.28938 0.14986,0.76997 0,0.5426 -0.21704,1.01286 -0.21188,0.47025 -0.65629,0.80615 -0.43408,0.32556 -1.02319,0.50126 -0.58394,0.17053 -1.4211,0.17053 -0.95601,0 -1.6433,-0.14986 -0.68213,-0.14986 -1.11104,-0.3359 v -1.68981 h 0.20153 q 0.44442,0.26871 1.05937,0.46508 0.62011,0.19637 1.13171,0.19637 0.29972,0 0.65112,-0.0465 0.3514,-0.0517 0.59427,-0.21704 0.19121,-0.12919 0.30489,-0.31005 0.11369,-0.18604 0.11369,-0.53227 0,-0.33589 -0.15503,-0.51676 -0.15503,-0.18604 -0.40824,-0.26355 -0.25321,-0.0827 -0.60978,-0.0879 -0.35657,-0.0103 -0.66146,-0.0103 h -0.42374 v -1.37458 h 0.43925 q 0.40307,0 0.71313,-0.0258 0.31006,-0.0258 0.5271,-0.11886 0.22737,-0.0982 0.34106,-0.25838 0.11369,-0.16536 0.11369,-0.48059 0,-0.23254 -0.11886,-0.37207 -0.11885,-0.14469 -0.29972,-0.22737 -0.20154,-0.093 -0.47542,-0.12403 -0.27388,-0.031 -0.47025,-0.031 -0.48576,0 -1.0542,0.17053 -0.56844,0.16536 -1.1007,0.48059 h -0.19121 v -1.66914 q 0.42375,-0.17054 1.15238,-0.32556 0.72864,-0.1602 1.47795,-0.1602 0.72863,0 1.2764,0.12919 0.54777,0.12402 0.90433,0.3359 0.42375,0.25321 0.63045,0.61494 0.20671,0.36174 0.20671,0.84749 0,0.64079 -0.39791,1.14722 -0.39791,0.50126 -1.04903,0.64078 v 0.0724 q 0.26355,0.0362 0.55811,0.14469 0.29455,0.10852 0.53743,0.31523 z"
         style="font-weight:bold;font-family:Verdana;-inkscape-font-specification:'Verdana, Bold'"
         id="path24432" />
    </g>
    <g
       aria-label="5"
       id="text12432-5"
       style="font-size:10.5833px;line-height:1.25;stroke-width:0.264583">
      <path
         d="m 204.77121,114.35938 q 0,0.59945 -0.22738,1.11621 -0.22221,0.5116 -0.65112,0.8785 -0.47542,0.39274 -1.09554,0.58394 -0.61494,0.18603 -1.40559,0.18603 -0.925,-0.005 -1.56579,-0.14986 -0.63562,-0.13952 -1.03869,-0.31522 v -1.70015 h 0.21704 q 0.47025,0.27905 1.01285,0.46508 0.5426,0.18604 1.08004,0.18604 0.32556,0 0.70279,-0.0724 0.38241,-0.0775 0.60462,-0.27388 0.17569,-0.1602 0.26354,-0.32556 0.093,-0.16537 0.093,-0.5116 0,-0.26871 -0.12402,-0.45992 -0.11886,-0.19637 -0.31006,-0.31522 -0.27905,-0.17053 -0.67179,-0.22221 -0.39274,-0.0568 -0.71313,-0.0568 -0.46509,0 -0.894,0.0827 -0.42375,0.0775 -0.74414,0.15503 h -0.22738 v -4.34081 h 5.47252 v 1.47277 h -3.607 v 1.25574 q 0.16019,-0.0103 0.40307,-0.0155 0.24805,-0.0103 0.43408,-0.0103 0.63562,0 1.13171,0.12402 0.50126,0.11886 0.863,0.3359 0.47025,0.28422 0.7338,0.75447 0.26355,0.46509 0.26355,1.17305 z"
         style="font-weight:bold;font-family:Verdana;-inkscape-font-specification:'Verdana, Bold'"
         id="path24438" />
    </g>
    <g
       aria-label="7"
       id="text12432-6"
       style="font-size:10.5833px;line-height:1.25;stroke-width:0.264583">
      <path
         d="m 263.76261,110.79889 -3.48298,6.16498 h -2.21174 l 3.61734,-6.22183 h -3.95324 v -1.47277 h 6.03062 z"
         style="font-weight:bold;font-family:Verdana;-inkscape-font-specification:'Verdana, Bold'"
         id="path24444" />
    </g>
    <g
       aria-label="4"
       id="text12432-3"
       style="font-size:10.5833px;line-height:1.25;stroke-width:0.264583">
      <path
         d="m 152.76129,177.00721 h -1.04902 v 1.79317 h -1.89652 v -1.79317 h -3.72586 v -1.45727 l 3.60183,-4.46483 h 2.02055 v 4.51651 h 1.04902 z m -2.94554,-1.40559 v -2.78018 l -2.23759,2.78018 z"
         style="font-weight:bold;font-family:Verdana;-inkscape-font-specification:'Verdana, Bold'"
         id="path24435" />
    </g>
    <g
       aria-label="6"
       id="text12432-4"
       style="font-size:10.5833px;line-height:1.25;stroke-width:0.264583">
      <path
         d="m 204.92624,176.30442 q 0,0.59428 -0.21704,1.11621 -0.21704,0.52193 -0.60978,0.8785 -0.41858,0.3824 -0.97152,0.58394 -0.54777,0.20153 -1.28674,0.20153 -0.69246,0 -1.26606,-0.18603 -0.56844,-0.1912 -0.97669,-0.57877 -0.47025,-0.44442 -0.7183,-1.14722 -0.24804,-0.70279 -0.24804,-1.67948 0,-1.01285 0.23254,-1.79833 0.23254,-0.78548 0.75964,-1.39009 0.50643,-0.57878 1.31258,-0.89917 0.81132,-0.32039 1.92752,-0.32039 0.37724,0 0.82682,0.0517 0.44959,0.0517 0.58395,0.0775 v 1.51411 h -0.19637 q -0.13953,-0.0672 -0.47543,-0.14986 -0.33072,-0.0879 -0.75447,-0.0879 -0.99218,0 -1.54512,0.48576 -0.55294,0.48576 -0.66662,1.35392 0.3979,-0.23771 0.83715,-0.38241 0.44442,-0.14986 0.95601,-0.14986 0.44959,0 0.83199,0.10335 0.38757,0.10336 0.7183,0.33073 0.42891,0.29973 0.6873,0.80615 0.25838,0.50643 0.25838,1.26607 z m -2.35127,1.16272 q 0.16019,-0.1757 0.25321,-0.41341 0.0982,-0.24288 0.0982,-0.65629 0,-0.37724 -0.10852,-0.61495 -0.10852,-0.24288 -0.29973,-0.38757 -0.18603,-0.14469 -0.43925,-0.19637 -0.25321,-0.0568 -0.52193,-0.0568 -0.22737,0 -0.47542,0.0517 -0.24804,0.0517 -0.45475,0.12919 0,0.0517 -0.005,0.17053 -0.005,0.11886 -0.005,0.29973 0,0.63561 0.12402,1.04902 0.12919,0.40825 0.34106,0.62529 0.1447,0.16019 0.34107,0.23771 0.19637,0.0723 0.42374,0.0723 0.17053,0 0.37724,-0.0775 0.2067,-0.0775 0.3514,-0.23254 z"
         style="font-weight:bold;font-family:Verdana;-inkscape-font-specification:'Verdana, Bold'"
         id="path24441" />
    </g>
  </g>
  <metadata
     id="metadata159">
    <rdf:RDF>
      <cc:Work
         rdf:about="">
        <cc:license
           rdf:resource="http://creativecommons.org/licenses/by-nc-nd/4.0/" />
        <dc:title>Figure 3</dc:title>
      </cc:Work>
      <cc:License
         rdf:about="http://creativecommons.org/licenses/by-nc-nd/4.0/">
        <cc:permits
           rdf:resource="http://creativecommons.org/ns#Reproduction" />
        <cc:permits
           rdf:resource="http://creativecommons.org/ns#Distribution" />
        <cc:requires
           rdf:resource="http://creativecommons.org/ns#Notice" />
        <cc:requires
           rdf:resource="http://creativecommons.org/ns#Attribution" />
        <cc:prohibits
           rdf:resource="http://creativecommons.org/ns#CommercialUse" />
      </cc:License>
    </rdf:RDF>
  </metadata>
</svg>
